<svg id="logo" xmlns="http://www.w3.org/2000/svg" width="582.0481mm" height="229.3761mm" viewBox="0 0 1649.9 650.2"><defs><style>.cls-1{fill:#fff;}</style></defs><title>ceu-logo-white</title><path id="dots" class="cls-1" d="M753.3,201.9a12.7,12.7,0,1,0,0-25.4c-7.6,0-12.7,5.1-12.7,12.7a12.7714,12.7714,0,0,0,12.7,12.7m0,25.4a12.7,12.7,0,1,0,0,25.4c7.6,0,12.7-5.1,12.7-12.7-1.2-7.7-6.3-12.7-12.7-12.7m0,49.5a12.7,12.7,0,1,0,0,25.4c7.6,0,12.7-5.1,12.7-12.7-1.2-7.7-6.3-12.7-12.7-12.7m0,49.5a12.7,12.7,0,1,0,0,25.4c7.6,0,12.7-5.1,12.7-12.7-1.2-7.6-6.3-12.7-12.7-12.7m0,49.5a12.7,12.7,0,1,0,0,25.4c7.6,0,12.7-5.1,12.7-12.7-1.2-6.4-6.3-12.7-12.7-12.7m0,49.5a12.7,12.7,0,1,0,0,25.4c7.6,0,12.7-5.1,12.7-12.7-1.2-6.4-6.3-12.7-12.7-12.7m0,49.5a12.7,12.7,0,1,0,0,25.4c7.6,0,12.7-5.1,12.7-12.7-1.2-6.3-6.3-12.7-12.7-12.7m0,50.8a12.7,12.7,0,1,0,0,25.4c7.6,0,12.7-5.1,12.7-12.7-1.2-7.6-6.3-12.7-12.7-12.7m0,49.5a12.7,12.7,0,1,0,0,25.4c7.6,0,12.7-5.1,12.7-12.7-1.2-7.6-6.3-12.7-12.7-12.7m0,49.5a12.7,12.7,0,1,0,0,25.4c7.6,0,12.7-5.1,12.7-12.7-1.2-7.6-6.3-12.7-12.7-12.7"/><path id="triangle-primary" class="cls-1" d="M36.8,135.8c-5.1,10.2-12.7,22.9-12.7,22.9l77.4,14L50.7,113a255.7575,255.7575,0,0,0-13.9,22.8"/><path id="triangles" class="cls-1" d="M138.2,34.3c-10.1,5.1-21.6,14-21.6,14L176.3,99l-14-77.4s-10.1,3.8-24.1,12.7M409.6,502.7c10.1-5.1,21.6-14,21.6-14L371.6,438l14,77.4a147.8894,147.8894,0,0,0,24-12.7M137,505.3c10.1,5.1,22.8,11.4,22.8,11.4l14-77.4L114.1,490c0,1.3,8.9,7.7,22.9,15.3M36.8,405c5.1,10.2,14,21.6,14,21.6l50.7-59.7-77.4,14c0,1.2,3.8,11.4,12.7,24.1M0,270.4c0,11.4,1.3,26.7,1.3,26.7l73.6-26.7L1.3,243.8C1.3,245,0,255.2,0,270.4M270.1,465.9l-26.6,73.6a230.5351,230.5351,0,0,0,26.6,1.3c11.4,0,26.6-1.3,26.6-1.3l-26.6-73.6Zm115.4-443L375.4,94l54.5-45.7s-8.9-6.3-21.6-14c-8.8-5.1-22.8-11.4-22.8-11.4M270.1,0c-11.4,0-26.6,1.3-26.6,1.3l26.6,73.6L296.7,1.3A228.3863,228.3863,0,0,0,270.1,0"/><path id="ceu" class="cls-1" d="M617.6,180.3V290.7h0a27.9,27.9,0,0,1-55.8,0V179H517.4V293.3c0,38.1,33,71.1,73.6,71.1s73.6-33,73.6-71.1V179l-47,1.3ZM362.7,360.6H492.1V323.8h-85V287h69.8V250.2H407.1v-33h85V180.4H362.7ZM252.4,220.9a34.7742,34.7742,0,0,1,24.1-10.2c6.3,0,8.9,2.5,45.7,21.6l20.3-21.6c-14-22.9-39.3-35.5-65.9-35.5-43.1,0-77.4,33-77.4,74.9v40.6c0,40.6,34.2,74.9,77.4,74.9a77.657,77.657,0,0,0,65.9-36.8l-20.3-21.6c-36.8,19-39.3,21.6-45.7,21.6-8.9,0-19-2.5-24.1-10.2-5.1-6.3-5.1-8.9-5.1-15.2v-66c-1.3-6.3-1.3-10.1,5.1-16.5"/><path id="university" class="cls-1" d="M1448.3,648.7h11.4V542.1h-11.4Zm26.7-95.2h31.7v95.2h11.4V553.5h31.7V542.1H1475Zm-57.1,43.2a106.2248,106.2248,0,0,0-27.9-8.9,41.729,41.729,0,0,1-16.5-6.3c-3.8-2.5-5.1-6.3-5.1-11.4,0-11.4,7.6-16.5,24.1-16.5,8.9,0,15.2,1.3,20.3,5.1,3.8,3.8,5.1,8.9,6.3,16.5v2.5h11.4v-3.8c0-21.6-12.7-34.3-36.8-34.3-29.2,0-35.5,15.2-35.5,27.9,0,10.2,3.8,17.8,11.4,22.9,3.8,2.5,11.4,5.1,21.6,7.6,8.9,2.5,14,3.8,16.5,5.1,5.1,1.3,7.6,3.8,8.9,6.3a19.42,19.42,0,0,1,2.5,10.2c0,6.3-2.5,10.2-6.3,14-5.1,3.8-10.1,5.1-19,5.1-19,0-29.2-7.6-29.2-25.4v-5.1h-11.4v5.1c0,11.4,3.8,20.3,10.1,26.7,7.6,6.3,17.8,10.2,30.4,10.2,10.1,0,19-2.5,25.4-7.6a24.9988,24.9988,0,0,0,11.4-21.6c.1-11.6-5-19.2-12.6-24.3m219.4-55.9-33,43.2-33-43.2h-14l40.6,55.9v50.8h11.4V596.7l40.6-55.9Zm-523.8,86.4-31.7-85.1h-12.7l39.3,106.6h8.9l38-106.6h-12.7l-29.1,85.1Zm72.3-29.2h50.7V586.6h-50.7V552.3h57.1V540.9h-68.5V647.5h68.5V636h-57.1V598Zm-279,10.1c0,20.3-8.9,30.5-26.6,30.5s-25.4-10.2-25.4-30.5v-66H843.4v66c0,12.7,2.5,21.6,6.3,27.9,6.3,8.9,16.5,12.7,30.4,12.7s25.4-3.8,30.4-12.7c5.1-6.3,7.6-16.5,7.6-27.9v-66H906.7v66Zm134.4,39.4h11.4V540.8h-11.4Zm-35.5-22.9c-6.3-8.9-14-21.6-24.1-36.8-12.7-19-22.8-35.5-29.2-45.7l-1.3-1.3H939.7V647.4h11.4V563.6l54.5,82.5,1.3,1.3h11.4V540.8h-12.7v83.8Zm317.1-53.3c0,6.3-1.3,10.2-5.1,14s-8.9,5.1-16.5,5.1H1272V552.3h30.4c14,0,20.4,6.3,20.4,19m11.4-1.3c0-19-11.4-29.2-31.7-29.2h-41.9V647.4H1272V601.7h29.2c14,0,20.3,5.1,20.3,17.8v27.9h11.4V619.5c0-11.4-3.8-19-11.4-24.1,8.9-5.1,12.7-12.7,12.7-25.4"/><path id="european" class="cls-1" d="M1454.7,424H1423l16.5-41.9Zm-20.3-63.4-40.6,106.6h12.7l11.4-31.7h39.3l11.4,31.7h12.7L1442,360.6ZM1160.5,457c-12.7,0-21.6-5.1-26.6-14-5.1-7.6-7.6-17.8-7.6-27.9,0-11.4,2.5-20.3,7.6-27.9,6.3-8.9,15.2-14,27.9-14s21.6,3.8,27.9,12.7c5.1,7.6,7.6,16.5,7.6,27.9s-2.5,21.6-7.6,29.2c-7.7,9-16.6,14-29.2,14m0-95.2c-16.5,0-29.2,6.3-36.8,17.8-6.3,8.9-8.9,21.6-8.9,35.5,0,14,2.5,26.7,10.1,36.8,7.6,11.4,20.3,17.8,36.8,17.8s29.2-6.3,36.8-19c6.3-8.9,8.9-21.6,8.9-35.5,0-14-3.8-26.7-10.1-35.5-7.7-12.8-20.4-17.9-36.8-17.9m105.2,47h-30.4V369.4h30.4c14,0,20.3,6.3,20.3,20.3,0,5.1-1.3,10.2-5.1,14s-8.8,5.1-15.2,5.1m-1.2-50.8h-40.6V464.6h11.4V420.2h27.9c10.1,0,19-2.5,25.4-7.6,6.3-5.1,8.9-12.7,8.9-22.9-.1-20.3-11.5-31.7-33-31.7M994.3,426.6c0,20.3-8.9,30.5-26.6,30.5s-25.4-10.2-25.4-30.5v-66H930.9v66c0,12.7,2.5,21.6,6.3,27.9,6.3,8.9,16.5,12.7,30.4,12.7,14,0,25.4-3.8,30.4-12.7,5.1-6.3,7.6-16.5,7.6-27.9v-66H994.2v66Zm95.1-35.6c0,6.3-1.3,10.2-5.1,14s-8.9,5.1-16.5,5.1h-29.2V372H1069c14.1,0,20.4,6.3,20.4,19m11.4-1.2c0-19-11.4-29.2-31.7-29.2h-41.9V467.2h11.4V421.5h29.2c14,0,20.3,5.1,20.3,17.8v27.9h11.4V439.3c0-11.4-3.8-19-11.4-24.1,8.9-5.1,12.7-12.7,12.7-25.4m-246,27.9h50.7V406.3H854.8V372h57.1V360.6H843.4V467.2h68.5V455.8H854.8V417.7Zm709-57.1v83.8c-6.3-8.9-14-21.6-24.1-36.8-12.7-20.3-22.8-35.5-29.2-45.7l-1.3-1.3h-11.4V467.2h11.4V383.4l55.8,83.8h11.4V360.6Zm-239.7,57.1h50.7V406.3h-50.7V372h57.1V360.6h-68.5V467.2h68.5V455.8h-57.1V417.7Z"/><path id="central" class="cls-1" d="M1357,242.5h-31.7l16.5-41.9Zm-20.3-62.2-40.6,106.6h12.7l11.4-31.7h39.3l11.4,31.7h12.7l-39.3-106.6Zm73.6,95.2V180.3h-11.4V286.9h63.4V275.5Zm-135.7-66c0,6.3-1.3,10.2-5.1,14s-8.9,5.1-16.5,5.1h-29.2V190.5h30.4c14.1,1.2,20.4,6.3,20.4,19m11.4,0c0-19-11.4-29.2-31.7-29.2h-41.9V286.9h11.4V241.2H1253c14,0,20.3,5.1,20.3,17.8v27.9h11.4V259c0-11.4-3.8-19-11.4-24.1,8.9-5.1,12.7-14,12.7-25.4M890.3,190.4c12.7,0,21.6,5.1,26.6,15.2l1.3,3.8,10.1-7.6-1.3-2.5c-7.6-12.7-20.3-20.3-36.8-20.3s-29.2,6.3-38,19c-6.3,10.2-10.1,21.6-10.1,36.8,0,14,2.5,25.4,8.9,35.5,7.6,12.7,20.3,17.8,36.8,17.8s29.2-6.3,36.8-20.3l1.3-2.5-8.9-7.6-2.5,2.5c-6.3,10.2-15.2,15.2-26.6,15.2-12.7,0-20.3-5.1-26.6-14-5.1-7.6-7.6-17.8-7.6-27.9,0-11.4,2.5-21.6,7.6-29.2,7.5-10.1,16.3-13.9,29-13.9m230.8,1.3h31.7v95.2h11.4V191.7h31.7V180.3h-74.8v11.4ZM955,237.4h50.7V226H955V191.7h57.1V180.3H943.6V286.9h68.5V275.5H955V237.4Zm140.8,26.7c-6.3-8.9-14-21.6-24.1-36.8-12.7-20.3-22.8-35.5-29.2-45.7l-1.3-1.3h-11.4V286.9h11.4V203.1l54.5,82.5,1.3,1.3h11.4V180.3H1097l-1.2,83.8Z"/></svg>