<svg xmlns="http://www.w3.org/2000/svg" viewBox="0 0 3102.15 1159.31"><defs><style>.cls-1{fill:#010101;}.cls-2{fill:#58a0bd;}.cls-3{fill:#ec9036;}.cls-4{fill:#6e8089;fill-rule:evenodd;}.cls-5{font-size:200px;fill:#1d1d1b;font-family:Gotham-LightItalic, Gotham;font-weight:300;font-style:italic;}.cls-6{fill:#f39200;}.cls-7{fill:#fff;}</style></defs><title>PyDataLogo2017 (1)</title><g id="Ebene_5" data-name="Ebene 5"><path class="cls-1" d="M475.64,599.2c-3.53-8-5.09-16.79-6.35-25.38a279.14,279.14,0,0,1-2.92-35.36A183.58,183.58,0,0,1,468,507.91c-20.3,6.23-45,12.41-73.84,20.91,20.75,25.49,32.41,38.33,31.62,100.17C444.64,618.21,461.15,608.33,475.64,599.2Z" transform="translate(-144.32 -18.66)"/></g><g id="Layer_1" data-name="Layer 1"><path class="cls-2" d="M1098.16,441.69h160.63q36.66,0,66.71,9.13t51.85,26.45a119.89,119.89,0,0,1,33.84,42.2q12,24.88,12,57v1.26q0,34.63-13.92,61.09a129.13,129.13,0,0,1-37.63,44.09q-23.7,17.63-55,26.45a242.65,242.65,0,0,1-66.08,8.82H1131V882.56h-32.88Zm154.3,246.88q31,0,56.28-7.6t43.32-21.85a101.29,101.29,0,0,0,28.14-34.53q10.11-20.26,10.12-45v-1.26q0-26.61-9.81-46.56a91.39,91.39,0,0,0-27.5-33.26q-17.71-13.3-42.37-20.28t-54.38-7H1131V688.57Z" transform="translate(-144.32 -18.66)"/><path class="cls-2" d="M1552.84,985.21a140,140,0,0,1-32.89-3.53,197,197,0,0,1-31-10.62l10.75-27.41a114.13,114.13,0,0,0,24.66,9.13q12,2.84,30.35,2.84a70.38,70.38,0,0,0,23.41-3.77,56.36,56.36,0,0,0,20.23-12.9,118.53,118.53,0,0,0,18.34-23.58,276,276,0,0,0,17.71-35.21L1479.49,561.35h36l134.07,287.2L1766,561.35h34.14L1660.34,893.9q-21.51,50.37-47.11,70.85T1552.84,985.21Z" transform="translate(-144.32 -18.66)"/><path class="cls-3" d="M1884,453.21h147.34q51.86,0,95.17,16.69t74.62,46.29a206.05,206.05,0,0,1,48.37,69.59q17.09,40,17.09,86.61v1.26q0,46.61-17.09,86.91a205.09,205.09,0,0,1-48.37,69.91q-31.29,29.61-74.62,46.61t-95.17,17H1884Zm147.34,411.26q46.16,0,83.47-14.84t63.24-40.44a180.27,180.27,0,0,0,40.16-60q14.22-34.44,14.22-74.27v-1.25a193.27,193.27,0,0,0-14.22-73.93,183.11,183.11,0,0,0-40.16-60.67q-25.95-25.9-63.24-41.07t-83.47-15.17H1916.88V864.47Z" transform="translate(-144.32 -18.66)"/><path class="cls-3" d="M2469.57,901.64a163.81,163.81,0,0,1-44.88-6.29,129,129,0,0,1-39.85-18.9,100.57,100.57,0,0,1-28.78-31.5Q2345,826.07,2345,800.87v-1.26q0-25.18,10.44-44.72a95.35,95.35,0,0,1,28.77-32.75q18.33-13.21,44.26-20.15t57.55-6.93q34.14,0,58.81,3.77a443,443,0,0,1,48.07,10.09V695.14q0-48.84-28.15-73.27t-78.09-24.43q-29.74,0-54.39,7.24a268.32,268.32,0,0,0-46.79,18.58l-11.39-27.11a330,330,0,0,1,53.76-20.59q27.17-7.71,60.7-7.72,66.4,0,101.81,35.27,32.88,32.75,32.89,90.69V894.08H2592.9V840.55A161.05,161.05,0,0,1,2573,862.91a135.86,135.86,0,0,1-26.88,19.52,155,155,0,0,1-34.47,13.85A156.88,156.88,0,0,1,2469.57,901.64Zm1.91-29.6a150.1,150.1,0,0,0,46.8-7.22,128.67,128.67,0,0,0,38.88-20.06,96.87,96.87,0,0,0,26.57-31,83.26,83.26,0,0,0,9.79-40.14V737.2q-20.23-5-47.42-9.73t-62-4.7q-51.23,0-78.72,20.39t-27.51,54.24v1.25q0,17.58,7.59,31.05A70.86,70.86,0,0,0,2406,852.59a97.59,97.59,0,0,0,30,14.43A125.14,125.14,0,0,0,2471.48,872Z" transform="translate(-144.32 -18.66)"/><path class="cls-3" d="M2842,899.74a120.15,120.15,0,0,1-35.4-5,74.15,74.15,0,0,1-48.07-43.78q-7-16.66-7-39.35V601.21h-46.8V572.87h46.8V470.21h31V572.87h113.2v28.34H2782.6V807.94q0,34.57,18,48.39t46.48,13.82a105.23,105.23,0,0,0,22.77-2.38,142.93,142.93,0,0,0,24.66-8.33v29a135.15,135.15,0,0,1-25,8.5A123,123,0,0,1,2842,899.74Z" transform="translate(-144.32 -18.66)"/><path class="cls-3" d="M3085.51,901.64a164,164,0,0,1-44.9-6.29,128.93,128.93,0,0,1-39.84-18.9A100.42,100.42,0,0,1,2972,845q-11.07-18.88-11.06-44.08v-1.26q0-25.18,10.42-44.72a95.56,95.56,0,0,1,28.77-32.75q18.35-13.21,44.28-20.15t57.54-6.93q34.15,0,58.82,3.77a442.61,442.61,0,0,1,48.05,10.09V695.14q0-48.84-28.14-73.27t-78.1-24.43q-29.72,0-54.38,7.24a268.73,268.73,0,0,0-46.8,18.58L2990,596.15a329.57,329.57,0,0,1,53.75-20.59q27.2-7.71,60.7-7.72,66.42,0,101.83,35.27,32.86,32.75,32.87,90.69V894.08h-30.35V840.55a159.77,159.77,0,0,1-19.92,22.36A135.57,135.57,0,0,1,3162,882.43a154.59,154.59,0,0,1-34.45,13.85A156.88,156.88,0,0,1,3085.51,901.64Zm1.89-29.6a150.06,150.06,0,0,0,46.8-7.22,128.9,128.9,0,0,0,38.9-20.06,96.69,96.69,0,0,0,26.55-31,83.27,83.27,0,0,0,9.81-40.14V737.2q-20.27-5-47.44-9.73t-62-4.7q-51.22,0-78.74,20.39t-27.51,54.24v1.25q0,17.58,7.59,31.05A71.15,71.15,0,0,0,3022,852.59,97.15,97.15,0,0,0,3052,867,125,125,0,0,0,3087.4,872Z" transform="translate(-144.32 -18.66)"/><path class="cls-2" d="M460.19,469.2,714.28,602V873.5M460.19,469.2V740.74L714.28,873.5" transform="translate(-144.32 -18.66)"/><path class="cls-3" d="M727.28,577.32,475,444.56l254.1-130.49,254.1,131.25-255.94,132Z" transform="translate(-144.32 -18.66)"/><polyline class="cls-4" points="599.63 583.42 853.73 450.54 853.73 722.08 599.63 854.95"/><path class="cls-3" d="M743.19,18.66,997.3,151.42V422.94M743.19,18.66V290.18L997.3,422.94" transform="translate(-144.32 -18.66)"/><text class="cls-5" transform="translate(2540.76 1098.87)">Berlin</text></g><g id="Ebene_4" data-name="Ebene 4"><path class="cls-6" d="M839.33,235.28c3.22,0,3.23-5,0-5s-3.22,5,0,5Z" transform="translate(-144.32 -18.66)"/><path class="cls-6" d="M305.84,439.12c21.93-13.24,99.18,13,99.38-38.33,0-8.69-7.31-8.3-7.51-.2,0,7.71-4.54,18.18-41.49,24.11-18.37,3-38.33-.2-49.39,5.13" transform="translate(-144.32 -18.66)"/><path class="cls-6" d="M624.73,667.52c2.57-8.89,5.33-20.55,11.46-26.48-9.29-.79-15.22,6.72-19.17,12.06,2.17-8.89,4.74-21,10.87-26.48-9.88-1-17.19,7.71-20.35,14.82,1.58-8.5,4-19.56,10.47-25.88-9.68-1.19-16.2,6.32-21.54,16.4,2-8.7,5.14-20.35,10.48-25.1-9.88-1.18-18.18,8.5-21.54,17.59,1.38-8.1,5.14-20.75,10.08-24.11C584.82,599,575.33,610.42,573,621.29" transform="translate(-144.32 -18.66)"/><path class="cls-6" d="M555.18,1071.37c7.51-3.95,17.78-7.51,24.5-6.13-3.75-4.34-10.08-8.49-20.55-8.3,5.53-2.56,14.62-7.31,22.72-5.53a24,24,0,0,0-23.71-7.7c6.52-3.76,16.6-7.12,22.73-5.73-7.32-8.89-19-9.49-26.48-6.92,5.73-3.36,16.6-7.9,23.31-6.12-5.73-7.91-20.54-10.67-27.66-6.13,4.35-3.55,15.41-7.7,22.92-6.32-6.72-8.69-21.14-10.87-31.61-4.54" transform="translate(-144.32 -18.66)"/><path class="cls-6" d="M255.65,1139.14c10.28-.79,20.75-.6,26.68,3.16-3.56-7.11-7.12-11.66-17.79-15.61,10.28-.59,18.58-1,24.9,3.16-2.37-6.91-9.88-14.42-20.35-16,7.11-1.78,19.76-.6,24.3,2.37-2.77-8.1-12.05-15.41-21.73-15.81,5.13-2.17,19-1.18,23.31,2.37-2.17-7.9-12.84-16.59-23.51-16,7.7-2.37,19.56-.59,23.31,2.37-3.36-9.68-14.62-18-28.25-16.2" transform="translate(-144.32 -18.66)"/><path class="cls-1" d="M337.25,347.45c-19.56-13-37.54-21.54-68.95-21.54-36.75,0-39.12,4.94-57.89,9.88-23.32-19.36-63.82,11.66-34.38,42.67-4.35,17.19-6.32,29.64-6.52,46.44-.4,60.85,16.4,54.53,16.6,83.77.19,10.07-9.29,32.2-9.49,49.19-.59,40.31,26.68,85.56,26.68,109.66,0,17.78-5.93,35.17-11.27,52-13.63,41.3-8.29,105.31-41.29,146.21l1.58,22.92,11.06-.2c-.39,12.65-3.95,103.53-11.65,135.14-2.77,11.07-12.84,25.1-3.56,37.15,7.51,9.68,17,19.56,24.9,29.44,18.77,23.9,51.17,48.21,82.39,49.19,17.78.6,26.87-66.18,14.81-66.78-11.26-.59-22.92-.79-32.79-5.73-7.51-3-7.91-12.64-2.77-17.78,50.78-50.38,79.62-73.1,86-181.37l8.69.39c.59,28.45-4.74,55.72-11.86,83,18,8.5,36.16,19.56,50.19,33.39,29.24,27.66,41.69,68.37,50.58,106.7,1,10.66,11.06,17.58,21.14,18.57,17.78,2.76,32.8-7.51,48.41-13.83,23.71-12.25,47-14.43,68.36-24.9,11.46-5.53-.59-62.43-11.86-64.41-6.91-1.18-15.21,2-21.53,4.74-14,5.34-22.13,20-36.75,23.32-5.34,2-12.45-1.19-11.07-7.71,7.12-39.31,10.28-81.79-6.52-119.14-15.21-31-38.92-61-102.34-91.08-4.94,4.74-14,14.82-19.36,18l-6.13-4.54c29.84-26.48,42.68-43.47,53.74-86.94a241.4,241.4,0,0,1-23.71-8.89l2.57-8.1c12.05,3.56,67.18,26.87,130.6,26.48,61.25-.4,98-49.4,120.52-83.58,9.88-15-43.86-59.47-52-50.18-15.81,18-26.67,35.76-40.31,59.27-3.95,6.72-22.92,2-30.23-1.38C472,663,426.56,638.87,401.66,627l1.58-7.51,13.83,6.12c1.39-24.1-1.58-49-13.63-69.94-14.42-26.47-41.1-42.28-66.39-56.7-9.68-6.13-22.72-13.44-21.53-26.48,46.63,1,52.36-2.57,52.55-15.61l-6.32-.59c.79-11.26-2.17-13.63-7.11-16.79a59.25,59.25,0,0,1-6.72,11.06v-2.17c0-6.92-12.25-7.71-16.2-3.36-3.56-5.73-19.16-4.55-19.36,2.17V452l-6.52-.59c0-11.66,1.18-23.91,8.1-33.39a45.1,45.1,0,0,1,6.91-6.91c1.39,2.76,3.36,5.72,7.51,5.72,3.95,0,8.89-.19,11.26-5.92,2.57,3.95,12.25,3.75,14.23-1.78.79-2.17.79-5.93.2-9.48.19-.2.59-.2,1-.4,4.94,3.36,8.11,6.92,9.09,14.82,10.08-8.1,11.07-13,9.49-22.72,12.44-9.09,15.8-20.35,16-37.74,0-2.77-1.78-3.95-4.15-4.15l-48.21-1.78" transform="translate(-144.32 -18.66)"/><path class="cls-7" d="M274.62,385.18c3,0,8.3-1.58,9.88-3.75,17.19-26.28,21.54-16.8,24.1-7.71,2.18,8.1,11.66,8.3,8.89-2.57-6.91-26.67-25.68-22.91-49,14m-50.39-26.67c-4.74-6.32-12.05-12.45-20-15-11.66-3.95-16.4,5.54-7.11,8.7a64.14,64.14,0,0,1,19.75,13.63m160.63,26.87a54.16,54.16,0,0,1-13.23,5.73c3.35,2.77,6.52,6.72,7.5,11.06a15.38,15.38,0,0,0,5.73-16.79m-31.61,10.47a13,13,0,0,0,1.38,6.32c2,3.17,9.29,3,10.87-1.38a15.48,15.48,0,0,0-.2-7.9c-3.95,1-8.1,1.78-12.05,3m-2.37.59c-5.33,1.59-10.47,3.36-15,6.33,1,2.37,2.77,4.74,6.33,4.74,3.16,0,6.71-.2,8.69-3.95,1-2,.59-4.74,0-7.12m22.33,52.36c.59-5.53,0-10.27-4.35-13.43a71.09,71.09,0,0,1-7.31,11.06v1.38m-2-.09V448.8c0-6.52-13.83-6.12-14,0v4.94m-1.78-.2V448c0-6.52-16-6.12-16-.2v4.35" transform="translate(-144.32 -18.66)"/></g><g id="Ebene_6" data-name="Ebene 6"><path class="cls-2" d="M460.19,773.68,714.28,906.44V1178M460.19,773.68V1045.2L714.28,1178" transform="translate(-144.32 -18.66)"/></g></svg>