<svg xmlns="http://www.w3.org/2000/svg" viewBox="0 0 186.5 37.18"><defs><style>.a{isolation:isolate;}.b{fill:#1c1c1c;}</style></defs><title>logo</title><g class="a"><g class="a"><path class="b" d="M15.85,54.66a20.05,20.05,0,0,1-7-1.29,18.42,18.42,0,0,1-6.25-3.88l4.62-5.56a17.43,17.43,0,0,0,4.27,2.7,11.07,11.07,0,0,0,4.59,1,6.29,6.29,0,0,0,3.77-.93,3,3,0,0,0,1.23-2.53,2.83,2.83,0,0,0-.35-1.43,3.44,3.44,0,0,0-1-1.07A9.71,9.71,0,0,0,18,40.83l-2.12-.91-4.67-2a13.8,13.8,0,0,1-2.67-1.43,11.92,11.92,0,0,1-2.31-2.06A9.29,9.29,0,0,1,4.63,31.7,9.68,9.68,0,0,1,4,28.15,9.38,9.38,0,0,1,5,24,10.22,10.22,0,0,1,7.6,20.59a12.74,12.74,0,0,1,4-2.29,15.35,15.35,0,0,1,5.14-.82A16.59,16.59,0,0,1,23,18.69a15.66,15.66,0,0,1,5.36,3.52l-4.12,5.12a15.54,15.54,0,0,0-3.52-2.12,9.91,9.91,0,0,0-3.91-.75,5.73,5.73,0,0,0-3.32.86,2.73,2.73,0,0,0-1.24,2.39,2.36,2.36,0,0,0,.41,1.4,4,4,0,0,0,1.16,1.05,12.08,12.08,0,0,0,1.73.88c.66.27,1.37.58,2.14.91l4.62,1.87a12.6,12.6,0,0,1,5.2,3.63,9.27,9.27,0,0,1,1.9,6.1,10.19,10.19,0,0,1-3.55,7.78,13,13,0,0,1-4.26,2.42A16.79,16.79,0,0,1,15.85,54.66Z" transform="translate(-2.59 -17.48)"/><path class="b" d="M35.48,54V18.14H58.09V25H43.57v8.3H56v6.82H43.57V54Z" transform="translate(-2.59 -17.48)"/><path class="b" d="M73.76,54.66a20.13,20.13,0,0,1-7-1.29,18.29,18.29,0,0,1-6.24-3.88l4.62-5.56a17.18,17.18,0,0,0,4.26,2.7,11.14,11.14,0,0,0,4.59,1,6.27,6.27,0,0,0,3.77-.93A3,3,0,0,0,79,44.21a2.74,2.74,0,0,0-.36-1.43,3.44,3.44,0,0,0-1-1.07,9.22,9.22,0,0,0-1.64-.88l-2.12-.91-4.68-2a14,14,0,0,1-2.66-1.43,11.36,11.36,0,0,1-2.31-2.06,9.53,9.53,0,0,1-1.63-2.75,9.9,9.9,0,0,1-.6-3.55A9.51,9.51,0,0,1,62.87,24a10.49,10.49,0,0,1,2.64-3.41,12.9,12.9,0,0,1,4-2.29,15.31,15.31,0,0,1,5.14-.82,16.63,16.63,0,0,1,6.19,1.21,15.76,15.76,0,0,1,5.36,3.52l-4.13,5.12a15.12,15.12,0,0,0-3.52-2.12,9.83,9.83,0,0,0-3.9-.75,5.74,5.74,0,0,0-3.33.86,2.73,2.73,0,0,0-1.24,2.39,2.36,2.36,0,0,0,.41,1.4,4.1,4.1,0,0,0,1.16,1.05,12.08,12.08,0,0,0,1.73.88l2.15.91,4.62,1.87a12.66,12.66,0,0,1,5.2,3.63,9.33,9.33,0,0,1,1.89,6.1,10.14,10.14,0,0,1-3.54,7.78,13.09,13.09,0,0,1-4.27,2.42A16.71,16.71,0,0,1,73.76,54.66Z" transform="translate(-2.59 -17.48)"/><path class="b" d="M108.36,54.66a17.49,17.49,0,0,1-6.44-1.18A15.15,15.15,0,0,1,96.62,50,16.35,16.35,0,0,1,93,44.24a22.08,22.08,0,0,1-1.32-8,21.51,21.51,0,0,1,1.38-7.95,17.81,17.81,0,0,1,3.68-5.91,15.55,15.55,0,0,1,5.39-3.68,16.83,16.83,0,0,1,6.49-1.27,13.59,13.59,0,0,1,6.22,1.4,17.22,17.22,0,0,1,4.56,3.28l-4.29,5.17a13.28,13.28,0,0,0-2.89-2.07,7.23,7.23,0,0,0-3.43-.8,7.72,7.72,0,0,0-3.44.8,8.18,8.18,0,0,0-2.81,2.28,11.5,11.5,0,0,0-1.86,3.63A15.85,15.85,0,0,0,100,36q0,5.57,2.36,8.61a7.59,7.59,0,0,0,6.33,3.05,8,8,0,0,0,3.93-1,12.09,12.09,0,0,0,3-2.39L120,49.38A14.55,14.55,0,0,1,108.36,54.66Z" transform="translate(-2.59 -17.48)"/><path class="b" d="M138,54.66a16.61,16.61,0,0,1-6.63-1.29,14.4,14.4,0,0,1-5.14-3.71,17.17,17.17,0,0,1-3.33-5.89,24.22,24.22,0,0,1-1.18-7.86,24,24,0,0,1,1.18-7.84,16.29,16.29,0,0,1,3.33-5.78,14.17,14.17,0,0,1,5.14-3.57,18.34,18.34,0,0,1,13.26,0,14.09,14.09,0,0,1,5.14,3.6,16.39,16.39,0,0,1,3.32,5.8,23.82,23.82,0,0,1,1.19,7.79A24.22,24.22,0,0,1,153,43.77a17,17,0,0,1-3.32,5.89,14.49,14.49,0,0,1-5.14,3.71A16.61,16.61,0,0,1,138,54.66Zm0-7a6.7,6.7,0,0,0,5.83-3.16c1.43-2.11,2.14-5,2.14-8.6s-.71-6.4-2.14-8.42a7.12,7.12,0,0,0-11.66,0c-1.43,2-2.15,4.82-2.15,8.42s.72,6.49,2.15,8.6A6.69,6.69,0,0,0,138,47.67Z" transform="translate(-2.59 -17.48)"/><path class="b" d="M161,54V18.14h8.31L178.65,36l3.52,7.92h.22c-.19-1.91-.4-4-.64-6.38s-.35-4.58-.35-6.71V18.14h7.7V54h-8.31l-9.35-17.87-3.52-7.81h-.22c.18,2,.4,4.1.63,6.38a62.75,62.75,0,0,1,.36,6.59V54Z" transform="translate(-2.59 -17.48)"/></g></g></svg>