<svg xmlns="http://www.w3.org/2000/svg" id="artwork" version="1.1" viewBox="0 0 180 81.91">
  <defs>
    <style>
      .st0{fill:#fff}
    </style>
  </defs>
  <path id="Central_European_University" d="M127.151 34.191c-1.137 0-2.087-.376-2.849-1.127s-1.143-1.688-1.143-2.812c0-1.13.381-2.073 1.143-2.828.762-.755 1.712-1.132 2.849-1.132.987 0 1.83.297 2.527.89.698.594 1.121 1.367 1.272 2.318h-2.093a1.933 1.933 0 0 0-.376-.671 1.747 1.747 0 0 0-1.32-.606c-.537 0-.979.192-1.325.574-.347.383-.521.867-.521 1.454 0 .379.079.721.236 1.025a1.764 1.764 0 0 0 1.61.972 1.678 1.678 0 0 0 1.347-.655c.161-.208.277-.447.348-.719h2.114c-.143.987-.565 1.787-1.266 2.399-.701.611-1.553.918-2.554.918Zm10.836-3.144c0 .165-.014.34-.043.526h-4.303c.065.329.199.58.403.751s.463.258.778.258c.157 0 .304-.022.44-.064.136-.043.256-.105.359-.188a.99.99 0 0 0 .252-.295h1.985a2.89 2.89 0 0 1-1.121 1.577c-.547.386-1.186.58-1.915.58-.902 0-1.651-.295-2.249-.885-.597-.59-.896-1.325-.896-2.205 0-.587.136-1.116.408-1.588s.647-.841 1.127-1.105 1.016-.397 1.61-.397c.615 0 1.164.134 1.647.403a2.86 2.86 0 0 1 1.121 1.095c.265.461.397.975.397 1.54Zm-3.165-1.47c-.286 0-.528.077-.725.231s-.338.374-.424.66h2.35c-.179-.594-.579-.89-1.202-.89Zm7.659-1.546c.672 0 1.21.222 1.615.665s.606 1.034.606 1.771v3.531h-1.996v-3.262c0-.672-.25-1.009-.751-1.009a.97.97 0 0 0-.531.14.853.853 0 0 0-.332.403 1.618 1.618 0 0 0-.113.638v3.091h-1.996v-5.795h1.395l.279.601c.457-.515 1.065-.773 1.824-.773Zm6.622 4.218h.772v1.749h-1.373c-.644 0-1.149-.184-1.513-.553-.365-.368-.547-.874-.547-1.519v-2.189h-1.063v-.462l2.597-2.769h.408v1.695h1.459v1.535h-1.406v1.846c0 .208.059.37.177.488s.281.177.489.177Zm5.122-4.078h.525v1.835h-.772c-.35 0-.605.082-.762.247-.158.165-.236.43-.236.794v2.951h-1.996v-5.795h1.33l.311.644c.386-.451.919-.676 1.599-.676Zm6.09.021h1.481v5.795h-1.535l-.172-.408a2.686 2.686 0 0 1-1.749.612 3.107 3.107 0 0 1-1.572-.397 2.823 2.823 0 0 1-1.084-1.105 3.249 3.249 0 0 1-.392-1.599c0-.894.286-1.629.858-2.205.573-.576 1.302-.864 2.189-.864.672 0 1.262.208 1.771.622l.204-.451Zm-2.64 3.853c.243.251.553.375.929.375s.685-.125.928-.375c.244-.25.365-.565.365-.944s-.121-.694-.365-.945a1.233 1.233 0 0 0-.923-.375c-.379 0-.691.125-.934.375-.243.251-.364.565-.364.945s.121.694.364.944Zm5.446 1.953V26.11h1.996v7.888h-1.996Zm-37.505 8.867h2.833v1.792h-4.894v-7.512h4.808v1.792h-2.748v1.105h2.468v1.695h-2.468v1.127Zm6.794 1.986c-.858 0-1.549-.245-2.071-.735-.523-.49-.784-1.139-.784-1.948v-3.305h1.996v3.219c0 .308.075.547.226.719.15.172.359.258.627.258s.479-.087.633-.263c.154-.175.231-.413.231-.714v-3.219h1.996v3.305c0 .537-.118 1.007-.354 1.411-.236.404-.571.717-1.003.939s-.932.333-1.497.333Zm7.363-6.02h.525v1.835h-.772c-.35 0-.605.082-.762.247-.158.165-.236.43-.236.794v2.951h-1.996v-5.795h1.33l.311.644c.386-.451.919-.676 1.599-.676Zm4.314 6.02c-.944 0-1.722-.291-2.334-.875-.612-.583-.918-1.322-.918-2.216 0-.901.306-1.642.918-2.221.611-.58 1.39-.869 2.334-.869s1.723.292 2.334.875.918 1.322.918 2.216-.308 1.633-.923 2.216c-.615.583-1.392.875-2.329.875Zm-.901-2.157c.236.243.537.365.901.365s.664-.121.896-.365c.232-.243.348-.554.348-.934s-.116-.691-.348-.934c-.233-.243-.531-.365-.896-.365-.243 0-.459.055-.649.166a1.17 1.17 0 0 0-.445.462c-.107.197-.162.42-.162.671 0 .379.118.69.354.934Zm8.534-4.025c.887 0 1.615.29 2.183.869.569.579.853 1.32.853 2.221s-.284 1.642-.853 2.221c-.569.58-1.296.869-2.183.869-.515 0-.987-.129-1.416-.386v2.286h-1.964v-7.888h1.352l.247.462a2.622 2.622 0 0 1 1.782-.655Zm-.268 4.422c.372 0 .682-.127.928-.381.247-.254.37-.57.37-.95s-.123-.696-.37-.95c-.246-.254-.556-.381-.928-.381s-.682.127-.929.381-.37.571-.37.95c0 .25.055.477.166.681.111.204.266.363.467.478s.422.172.666.172Zm10.291-1.384c0 .165-.014.34-.043.526h-4.303c.065.329.199.58.403.751s.463.258.778.258c.157 0 .304-.022.44-.064.136-.043.256-.105.359-.188a.99.99 0 0 0 .252-.295h1.985a2.89 2.89 0 0 1-1.121 1.577c-.547.386-1.186.58-1.915.58-.902 0-1.651-.295-2.249-.885-.597-.59-.896-1.325-.896-2.205 0-.587.136-1.116.408-1.588s.647-.841 1.127-1.105 1.016-.397 1.61-.397c.615 0 1.164.134 1.647.403a2.86 2.86 0 0 1 1.121 1.095c.265.461.397.975.397 1.54Zm-3.165-1.471c-.286 0-.528.077-.725.231s-.338.374-.424.66h2.35c-.179-.594-.579-.89-1.202-.89Zm8.858-1.384h1.481v5.795h-1.535l-.172-.408a2.686 2.686 0 0 1-1.749.612 3.107 3.107 0 0 1-1.572-.397 2.823 2.823 0 0 1-1.084-1.105 3.249 3.249 0 0 1-.392-1.599c0-.894.286-1.629.858-2.205.573-.576 1.302-.864 2.189-.864.672 0 1.262.208 1.771.622l.204-.451Zm-2.64 3.853c.243.251.553.375.929.375s.685-.125.928-.375c.244-.25.365-.565.365-.944s-.121-.694-.365-.945a1.233 1.233 0 0 0-.923-.375c-.379 0-.691.125-.934.375-.243.251-.364.565-.364.945s.121.694.364.944Zm8.949-4.014c.672 0 1.21.222 1.615.665s.606 1.034.606 1.771v3.531h-1.996v-3.262c0-.672-.25-1.009-.751-1.009a.97.97 0 0 0-.531.14.853.853 0 0 0-.332.403 1.618 1.618 0 0 0-.113.638v3.091h-1.996v-5.795h1.395l.279.601c.457-.515 1.065-.773 1.824-.773Zm-44.636 16.31c-.611.573-1.399.859-2.361.859s-1.749-.286-2.361-.859c-.611-.572-.917-1.32-.917-2.243v-4.604h2.114v4.572c0 .365.107.657.322.874.215.219.495.327.842.327s.628-.109.842-.327c.215-.218.322-.51.322-.874v-4.572h2.115v4.604c0 .923-.306 1.671-.918 2.243Zm5.743-5.301c.672 0 1.21.222 1.615.665s.606 1.034.606 1.771v3.531h-1.996v-3.262c0-.672-.25-1.009-.751-1.009a.97.97 0 0 0-.531.14.853.853 0 0 0-.332.403 1.618 1.618 0 0 0-.113.638v3.091h-1.996v-5.795h1.395l.279.601c.457-.515 1.065-.773 1.824-.773Zm3.504 5.966v-5.795h1.996v5.795h-1.996Zm.01-6.524v-1.685h1.964v1.685h-1.964Zm7.05.729h2.136l-2.329 5.795h-1.814l-2.361-5.795h2.189l1.095 3.434 1.083-3.434Zm8.579 2.844c0 .165-.014.34-.043.526h-4.303c.065.329.199.58.403.751s.463.258.778.258c.157 0 .304-.022.44-.064.136-.043.256-.105.359-.188a.99.99 0 0 0 .252-.295h1.985a2.89 2.89 0 0 1-1.121 1.577c-.547.386-1.186.58-1.915.58-.902 0-1.651-.295-2.249-.885-.597-.59-.896-1.325-.896-2.205 0-.587.136-1.116.408-1.588s.647-.841 1.127-1.105 1.016-.397 1.61-.397c.615 0 1.164.134 1.647.403a2.86 2.86 0 0 1 1.121 1.095c.265.461.397.975.397 1.54Zm-3.166-1.47c-.286 0-.528.077-.725.231s-.338.374-.424.66h2.35c-.179-.594-.579-.89-1.202-.89Zm7.403-1.406h.525v1.835h-.772c-.35 0-.605.082-.762.247-.158.165-.236.43-.236.794v2.951h-1.996v-5.795h1.33l.311.644c.386-.451.919-.676 1.599-.676Zm3.654 6.02c-.788 0-1.408-.19-1.862-.569s-.685-.887-.692-1.524h1.921c0 .2.061.354.182.461a.704.704 0 0 0 .483.161c.1 0 .193-.016.279-.048a.452.452 0 0 0 .209-.156.398.398 0 0 0 .081-.247.323.323 0 0 0-.145-.268.984.984 0 0 0-.328-.156 5.696 5.696 0 0 0-.52-.102 8.33 8.33 0 0 1-.569-.107 3.241 3.241 0 0 1-.542-.188 1.7 1.7 0 0 1-.505-.317 1.499 1.499 0 0 1-.332-.494 1.744 1.744 0 0 1-.14-.719c0-.58.225-1.043.676-1.39.451-.347 1.048-.521 1.792-.521.737 0 1.329.179 1.776.537s.674.833.682 1.427h-1.867a.55.55 0 0 0-.081-.306.488.488 0 0 0-.214-.183.793.793 0 0 0-.317-.059.603.603 0 0 0-.392.118.385.385 0 0 0-.145.311c0 .057.011.107.033.15a.28.28 0 0 0 .112.112c.054.032.102.059.146.081a.979.979 0 0 0 .209.064 11.033 11.033 0 0 0 .499.096l.316.059a6.735 6.735 0 0 1 .648.161c.072.025.17.066.296.123.125.057.22.114.284.172.064.057.141.131.23.22.089.09.156.185.199.285.043.1.08.22.113.359.032.14.048.288.048.445 0 .608-.234 1.095-.703 1.46s-1.089.547-1.862.547Zm3.612-.193v-5.795h1.996v5.795h-1.996Zm.011-6.524v-1.685h1.964v1.685h-1.964Zm6.505 4.775h.772v1.749h-1.373c-.644 0-1.149-.184-1.513-.553-.365-.368-.547-.874-.547-1.519v-2.189h-1.063v-.462l2.597-2.769h.408v1.695h1.459v1.535h-1.406v1.846c0 .208.059.37.177.488s.281.177.489.177Zm5.839-4.046H180l-2.426 5.537c-.401.901-.815 1.529-1.244 1.883s-1.013.531-1.75.531h-.687v-1.717h.547c.379 0 .651-.061.816-.182.164-.122.314-.368.451-.741l-2.393-5.312h2.168l1.223 3.187 1.148-3.187Z" class="st0"/>
  <path id="CEU" d="M68.421 48.002h15.722v7.676H59.857V26.264h23.958v7.676H68.421v3.406h14.327v7.168H68.421v3.488Zm35.886-21.738V44.09c0 1.314-.371 2.33-1.133 3.106-.76.774-1.734 1.149-2.978 1.149s-2.218-.376-2.978-1.149c-.763-.776-1.133-1.792-1.133-3.106V26.264h-8.769v17.949c0 3.613 1.217 6.583 3.617 8.829 2.394 2.24 5.511 3.375 9.263 3.375s6.869-1.135 9.263-3.375c2.4-2.246 3.618-5.216 3.618-8.829V26.264h-8.769ZM47.54 44.647c-.221.468-.485.9-.785 1.286a6.104 6.104 0 0 1-2.138 1.751 6.154 6.154 0 0 1-2.743.621c-1.27 0-2.433-.314-3.455-.935a6.447 6.447 0 0 1-2.398-2.594c-.573-1.108-.864-2.374-.864-3.763 0-2.146.64-3.94 1.902-5.331 1.254-1.383 2.874-2.084 4.815-2.084.929 0 1.819.196 2.646.583a6.469 6.469 0 0 1 3.001 2.88l.096.181h8.931l-.099-.42c-.738-3.137-2.329-5.763-4.729-7.807-2.719-2.315-6.046-3.488-9.888-3.488-4.423 0-8.17 1.491-11.138 4.43-2.968 2.94-4.473 6.66-4.473 11.057 0 4.371 1.505 8.071 4.473 10.997 2.967 2.925 6.714 4.408 11.137 4.408 3.897 0 7.26-1.209 9.993-3.593 2.385-2.081 3.964-4.757 4.692-7.955l.095-.418h-8.98l-.093.196Z" class="st0"/>
  <path id="Triangles" d="M26.47 2.578S29.452 1.559 32.455.92C35.458.282 38.597 0 38.597 0l-2.463 18.23L26.47 2.578Zm-4.994 25.718L10.327 13.664s-2.02 2.419-3.692 4.993-3.06 5.404-3.06 5.404l17.901 4.234ZM18.23 45.778 0 43.315s.282 3.139.92 6.142c.638 3.003 1.658 5.985 1.658 5.985l15.652-9.664Zm10.065 14.657L13.663 71.584s2.419 2.02 4.993 3.692c2.575 1.672 5.404 3.06 5.404 3.06l4.234-17.901Zm17.483 3.247-2.463 18.23s3.139-.282 6.142-.92c3.003-.638 5.985-1.658 5.985-1.658l-9.664-15.652Z" class="st0"/>
</svg>