<svg width="116" height="31" viewBox="0 0 116 31" fill="none" xmlns="http://www.w3.org/2000/svg">
<path d="M33.5696 29.3182V9.81818H37.4474V12.2003H37.6229C37.7952 11.8187 38.0445 11.4309 38.3707 11.0369C38.7031 10.6368 39.134 10.3045 39.6634 10.0398C40.1989 9.76894 40.8636 9.63352 41.6577 9.63352C42.6918 9.63352 43.6458 9.90436 44.5199 10.446C45.3939 10.9815 46.0926 11.791 46.6158 12.8743C47.139 13.9515 47.4006 15.3026 47.4006 16.9276C47.4006 18.5095 47.1451 19.8452 46.6342 20.9347C46.1295 22.018 45.4401 22.8397 44.5661 23.3999C43.6982 23.9538 42.7256 24.2308 41.6484 24.2308C40.8852 24.2308 40.2358 24.1046 39.7003 23.8523C39.1709 23.5999 38.737 23.2829 38.3984 22.9013C38.0599 22.5135 37.8014 22.1226 37.6229 21.7287H37.5028V29.3182H33.5696ZM37.4197 16.9091C37.4197 17.7524 37.5367 18.4879 37.7706 19.1158C38.0045 19.7436 38.343 20.233 38.7862 20.5838C39.2294 20.9285 39.768 21.1009 40.402 21.1009C41.0421 21.1009 41.5838 20.9254 42.027 20.5746C42.4702 20.2176 42.8056 19.7251 43.0334 19.0973C43.2673 18.4633 43.3842 17.7339 43.3842 16.9091C43.3842 16.0904 43.2704 15.3703 43.0426 14.7486C42.8149 14.1269 42.4794 13.6406 42.0362 13.2898C41.593 12.9389 41.0483 12.7635 40.402 12.7635C39.7618 12.7635 39.2202 12.9328 38.777 13.2713C38.34 13.6098 38.0045 14.09 37.7706 14.7116C37.5367 15.3333 37.4197 16.0658 37.4197 16.9091ZM49.2427 24V9.81818H53.0559V12.2926H53.2037C53.4622 11.4124 53.8961 10.7476 54.5055 10.2983C55.1149 9.8428 55.8166 9.61506 56.6106 9.61506C56.8076 9.61506 57.02 9.62737 57.2477 9.65199C57.4754 9.67661 57.6755 9.71046 57.8478 9.75355V13.2436C57.6632 13.1882 57.4077 13.139 57.0815 13.0959C56.7553 13.0528 56.4567 13.0312 56.1859 13.0312C55.6073 13.0312 55.0903 13.1574 54.6348 13.4098C54.1854 13.656 53.8284 14.0007 53.5638 14.4439C53.3052 14.8871 53.176 15.398 53.176 15.9766V24H49.2427ZM64.9043 24.277C63.4455 24.277 62.1898 23.9815 61.1373 23.3906C60.0909 22.7936 59.2845 21.9503 58.7182 20.8608C58.1519 19.7652 57.8688 18.4695 57.8688 16.9737C57.8688 15.5149 58.1519 14.2346 58.7182 13.1328C59.2845 12.031 60.0816 11.1723 61.1096 10.5568C62.1437 9.94129 63.3563 9.63352 64.7474 9.63352C65.683 9.63352 66.5539 9.78433 67.3603 10.0859C68.1728 10.3814 68.8806 10.8277 69.4839 11.4247C70.0932 12.0218 70.5672 12.7727 70.9057 13.6776C71.2443 14.5762 71.4135 15.6288 71.4135 16.8352V17.9155H59.4384V15.478H67.7111C67.7111 14.9117 67.588 14.41 67.3418 13.973C67.0956 13.536 66.754 13.1944 66.317 12.9482C65.8861 12.6958 65.3844 12.5696 64.812 12.5696C64.2149 12.5696 63.6856 12.7081 63.2239 12.9851C62.7684 13.2559 62.4114 13.6222 62.1529 14.0838C61.8944 14.5393 61.762 15.0471 61.7559 15.6072V17.9247C61.7559 18.6264 61.8851 19.2327 62.1437 19.7436C62.4083 20.2545 62.7807 20.6484 63.2608 20.9254C63.741 21.2024 64.3103 21.3409 64.9689 21.3409C65.406 21.3409 65.8061 21.2794 66.1692 21.1562C66.5324 21.0331 66.8432 20.8485 67.1018 20.6023C67.3603 20.3561 67.5572 20.0545 67.6927 19.6974L71.3304 19.9375C71.1458 20.8116 70.7672 21.5748 70.1948 22.2273C69.6285 22.8736 68.896 23.3783 67.9974 23.7415C67.1048 24.0985 66.0738 24.277 64.9043 24.277ZM77.1335 5.09091V24H73.2003V5.09091H77.1335ZM79.5043 24V9.81818H83.4375V24H79.5043ZM81.4801 7.99006C80.8954 7.99006 80.3937 7.79616 79.9752 7.40838C79.5628 7.01444 79.3566 6.54356 79.3566 5.99574C79.3566 5.45407 79.5628 4.98935 79.9752 4.60156C80.3937 4.20762 80.8954 4.01065 81.4801 4.01065C82.0649 4.01065 82.5635 4.20762 82.9759 4.60156C83.3944 4.98935 83.6037 5.45407 83.6037 5.99574C83.6037 6.54356 83.3944 7.01444 82.9759 7.40838C82.5635 7.79616 82.0649 7.99006 81.4801 7.99006ZM89.7415 15.8011V24H85.8083V9.81818H89.5569V12.3203H89.723C90.037 11.4955 90.5632 10.843 91.3019 10.3629C92.0405 9.87666 92.9361 9.63352 93.9887 9.63352C94.9735 9.63352 95.8322 9.84896 96.5647 10.2798C97.2971 10.7107 97.8665 11.3262 98.2728 12.1264C98.679 12.9205 98.8821 13.8684 98.8821 14.9702V24H94.9489V15.6719C94.9551 14.804 94.7335 14.1269 94.2841 13.6406C93.8348 13.1482 93.2162 12.902 92.4283 12.902C91.8989 12.902 91.4311 13.0159 91.0249 13.2436C90.6248 13.4714 90.3109 13.8037 90.0831 14.2408C89.8615 14.6716 89.7477 15.1918 89.7415 15.8011ZM107.665 24.277C106.206 24.277 104.951 23.9815 103.898 23.3906C102.852 22.7936 102.045 21.9503 101.479 20.8608C100.913 19.7652 100.63 18.4695 100.63 16.9737C100.63 15.5149 100.913 14.2346 101.479 13.1328C102.045 12.031 102.842 11.1723 103.87 10.5568C104.905 9.94129 106.117 9.63352 107.508 9.63352C108.444 9.63352 109.315 9.78433 110.121 10.0859C110.934 10.3814 111.641 10.8277 112.245 11.4247C112.854 12.0218 113.328 12.7727 113.667 13.6776C114.005 14.5762 114.174 15.6288 114.174 16.8352V17.9155H102.199V15.478H110.472C110.472 14.9117 110.349 14.41 110.103 13.973C109.856 13.536 109.515 13.1944 109.078 12.9482C108.647 12.6958 108.145 12.5696 107.573 12.5696C106.976 12.5696 106.446 12.7081 105.985 12.9851C105.529 13.2559 105.172 13.6222 104.914 14.0838C104.655 14.5393 104.523 15.0471 104.517 15.6072V17.9247C104.517 18.6264 104.646 19.2327 104.905 19.7436C105.169 20.2545 105.542 20.6484 106.022 20.9254C106.502 21.2024 107.071 21.3409 107.73 21.3409C108.167 21.3409 108.567 21.2794 108.93 21.1562C109.293 21.0331 109.604 20.8485 109.863 20.6023C110.121 20.3561 110.318 20.0545 110.454 19.6974L114.091 19.9375C113.907 20.8116 113.528 21.5748 112.956 22.2273C112.389 22.8736 111.657 23.3783 110.758 23.7415C109.866 24.0985 108.835 24.277 107.665 24.277Z" fill="#2563EB"/>
<path d="M1 28V15C1 8.37258 6.37258 3 13 3C19.6274 3 25 8.37258 25 15C25 21.6274 19.6274 27 13 27H12" stroke="#2563EB" stroke-width="2"/>
<path d="M5 28V15.16C5 10.6534 8.58172 7 13 7C17.4183 7 21 10.6534 21 15.16C21 19.6666 17.4183 23.32 13 23.32H12" stroke="#2563EB" stroke-width="2"/>
<circle cx="13" cy="15.0214" r="5" fill="#2563EB"/>
</svg>
